<svg width="165" height="32" viewBox="0 0 165 32" fill="none" xmlns="http://www.w3.org/2000/svg">
<rect width="165" height="32" rx="10" fill="black"/>
<rect width="165" height="32" rx="10" fill="url(#paint0_linear_1_8)" fill-opacity="0.23"/>
<rect x="0.5" y="0.5" width="164" height="31" rx="9.5" stroke="white" stroke-opacity="0.1"/>
<path d="M43.0568 20V11.2727H48.3239V12.2102H44.1136V15.1591H48.0511V16.0966H44.1136V19.0625H48.392V20H43.0568ZM52.5639 20.1364C52.0185 20.1364 51.5369 19.9986 51.1193 19.723C50.7017 19.4446 50.375 19.0526 50.1392 18.5469C49.9034 18.0384 49.7855 17.4375 49.7855 16.7443C49.7855 16.0568 49.9034 15.4602 50.1392 14.9545C50.375 14.4489 50.7031 14.0582 51.1236 13.7827C51.544 13.5071 52.0298 13.3693 52.581 13.3693C53.0071 13.3693 53.3438 13.4403 53.5909 13.5824C53.8409 13.7216 54.0313 13.8807 54.1619 14.0597C54.2955 14.2358 54.3991 14.3807 54.473 14.4943H54.5582V11.2727H55.5639V20H54.5923V18.9943H54.473C54.3991 19.1136 54.294 19.2642 54.1577 19.446C54.0213 19.625 53.8267 19.7855 53.5739 19.9276C53.321 20.0668 52.9844 20.1364 52.5639 20.1364ZM52.7003 19.233C53.1037 19.233 53.4446 19.1278 53.723 18.9176C54.0014 18.7045 54.2131 18.4105 54.358 18.0355C54.5028 17.6577 54.5753 17.2216 54.5753 16.7273C54.5753 16.2386 54.5043 15.8111 54.3622 15.4446C54.2202 15.0753 54.0099 14.7884 53.7315 14.5838C53.4531 14.3764 53.1094 14.2727 52.7003 14.2727C52.2741 14.2727 51.919 14.3821 51.6349 14.6009C51.3537 14.8168 51.142 15.1108 51 15.483C50.8608 15.8523 50.7912 16.267 50.7912 16.7273C50.7912 17.1932 50.8622 17.6165 51.0043 17.9972C51.1491 18.375 51.3622 18.6761 51.6435 18.9006C51.9276 19.1222 52.2798 19.233 52.7003 19.233ZM57.5455 20V13.4545H58.5511V20H57.5455ZM58.0568 12.3636C57.8608 12.3636 57.6918 12.2969 57.5497 12.1634C57.4105 12.0298 57.3409 11.8693 57.3409 11.6818C57.3409 11.4943 57.4105 11.3338 57.5497 11.2003C57.6918 11.0668 57.8608 11 58.0568 11C58.2528 11 58.4205 11.0668 58.5597 11.2003C58.7017 11.3338 58.7727 11.4943 58.7727 11.6818C58.7727 11.8693 58.7017 12.0298 58.5597 12.1634C58.4205 12.2969 58.2528 12.3636 58.0568 12.3636ZM63.2397 13.4545V14.3068H59.8477V13.4545H63.2397ZM60.8363 11.8864H61.842V18.125C61.842 18.4091 61.8832 18.6222 61.9656 18.7642C62.0508 18.9034 62.1587 18.9972 62.2894 19.0455C62.4229 19.0909 62.5636 19.1136 62.7113 19.1136C62.8221 19.1136 62.913 19.108 62.984 19.0966C63.055 19.0824 63.1119 19.071 63.1545 19.0625L63.359 19.9659C63.2908 19.9915 63.1957 20.017 63.0735 20.0426C62.9513 20.071 62.7965 20.0852 62.609 20.0852C62.3249 20.0852 62.0465 20.0241 61.7738 19.902C61.5039 19.7798 61.2795 19.5938 61.1005 19.3438C60.9244 19.0938 60.8363 18.7784 60.8363 18.3977V11.8864ZM70.7866 20.1364C70.1957 20.1364 69.6772 19.9957 69.2312 19.7145C68.788 19.4332 68.4414 19.0398 68.1914 18.5341C67.9442 18.0284 67.8207 17.4375 67.8207 16.7614C67.8207 16.0795 67.9442 15.4844 68.1914 14.9759C68.4414 14.4673 68.788 14.0724 69.2312 13.7912C69.6772 13.5099 70.1957 13.3693 70.7866 13.3693C71.3775 13.3693 71.8945 13.5099 72.3377 13.7912C72.7837 14.0724 73.1303 14.4673 73.3775 14.9759C73.6275 15.4844 73.7525 16.0795 73.7525 16.7614C73.7525 17.4375 73.6275 18.0284 73.3775 18.5341C73.1303 19.0398 72.7837 19.4332 72.3377 19.7145C71.8945 19.9957 71.3775 20.1364 70.7866 20.1364ZM70.7866 19.233C71.2354 19.233 71.6048 19.1179 71.8945 18.8878C72.1843 18.6577 72.3988 18.3551 72.538 17.9801C72.6772 17.6051 72.7468 17.1989 72.7468 16.7614C72.7468 16.3239 72.6772 15.9162 72.538 15.5384C72.3988 15.1605 72.1843 14.8551 71.8945 14.6222C71.6048 14.3892 71.2354 14.2727 70.7866 14.2727C70.3377 14.2727 69.9684 14.3892 69.6786 14.6222C69.3888 14.8551 69.1744 15.1605 69.0352 15.5384C68.896 15.9162 68.8263 16.3239 68.8263 16.7614C68.8263 17.1989 68.896 17.6051 69.0352 17.9801C69.1744 18.3551 69.3888 18.6577 69.6786 18.8878C69.9684 19.1179 70.3377 19.233 70.7866 19.233ZM76.2933 16.0625V20H75.2876V13.4545H76.2592V14.4773H76.3445C76.4979 14.1449 76.7308 13.8778 77.0433 13.6761C77.3558 13.4716 77.7592 13.3693 78.2536 13.3693C78.6967 13.3693 79.0845 13.4602 79.4169 13.642C79.7493 13.821 80.0078 14.0938 80.1925 14.4602C80.3771 14.8239 80.4695 15.2841 80.4695 15.8409V20H79.4638V15.9091C79.4638 15.3949 79.3303 14.9943 79.0632 14.7074C78.7962 14.4176 78.4297 14.2727 77.9638 14.2727C77.6428 14.2727 77.3558 14.3423 77.103 14.4815C76.853 14.6207 76.6555 14.8239 76.5107 15.0909C76.3658 15.358 76.2933 15.6818 76.2933 16.0625ZM90.5913 13.4545C90.5401 13.0227 90.3327 12.6875 89.9691 12.4489C89.6055 12.2102 89.1594 12.0909 88.631 12.0909C88.2447 12.0909 87.9066 12.1534 87.6168 12.2784C87.3299 12.4034 87.1055 12.5753 86.9435 12.794C86.7844 13.0128 86.7049 13.2614 86.7049 13.5398C86.7049 13.7727 86.7603 13.973 86.8711 14.1406C86.9847 14.3054 87.1296 14.4432 87.3058 14.554C87.4819 14.6619 87.6665 14.7514 87.8597 14.8224C88.0529 14.8906 88.2305 14.946 88.3924 14.9886L89.2788 15.2273C89.506 15.2869 89.7589 15.3693 90.0373 15.4744C90.3185 15.5795 90.587 15.723 90.8427 15.9048C91.1012 16.0838 91.3143 16.3139 91.4819 16.5952C91.6495 16.8764 91.7333 17.2216 91.7333 17.6307C91.7333 18.1023 91.6097 18.5284 91.3626 18.9091C91.1183 19.2898 90.7603 19.5923 90.2887 19.8168C89.82 20.0412 89.2504 20.1534 88.5799 20.1534C87.9549 20.1534 87.4137 20.0526 86.9563 19.8509C86.5018 19.6491 86.1438 19.3679 85.8825 19.0071C85.6239 18.6463 85.4776 18.2273 85.4435 17.75H86.5344C86.5629 18.0795 86.6737 18.3523 86.8668 18.5682C87.0629 18.7812 87.31 18.9403 87.6083 19.0455C87.9094 19.1477 88.2333 19.1989 88.5799 19.1989C88.9833 19.1989 89.3455 19.1335 89.6665 19.0028C89.9876 18.8693 90.2418 18.6847 90.4293 18.4489C90.6168 18.2102 90.7106 17.9318 90.7106 17.6136C90.7106 17.3239 90.6296 17.0881 90.4677 16.9062C90.3058 16.7244 90.0927 16.5767 89.8285 16.4631C89.5643 16.3494 89.2788 16.25 88.9719 16.1648L87.8981 15.858C87.2163 15.6619 86.6765 15.3821 86.2788 15.0185C85.881 14.6548 85.6822 14.179 85.6822 13.5909C85.6822 13.1023 85.8143 12.6761 86.0785 12.3125C86.3455 11.946 86.7035 11.6619 87.1523 11.4602C87.604 11.2557 88.1083 11.1534 88.6651 11.1534C89.2276 11.1534 89.7276 11.2543 90.1651 11.456C90.6026 11.6548 90.9492 11.9276 91.2049 12.2741C91.4634 12.6207 91.5998 13.0142 91.614 13.4545H90.5913ZM96.1811 13.4545V14.3068H92.7891V13.4545H96.1811ZM93.7777 11.8864H94.7834V18.125C94.7834 18.4091 94.8246 18.6222 94.907 18.7642C94.9922 18.9034 95.1001 18.9972 95.2308 19.0455C95.3643 19.0909 95.505 19.1136 95.6527 19.1136C95.7635 19.1136 95.8544 19.108 95.9254 19.0966C95.9964 19.0824 96.0533 19.071 96.0959 19.0625L96.3004 19.9659C96.2322 19.9915 96.1371 20.017 96.0149 20.0426C95.8928 20.071 95.7379 20.0852 95.5504 20.0852C95.2663 20.0852 94.9879 20.0241 94.7152 19.902C94.4453 19.7798 94.2209 19.5938 94.0419 19.3438C93.8658 19.0938 93.7777 18.7784 93.7777 18.3977V11.8864ZM99.62 20.1534C99.2053 20.1534 98.8288 20.0753 98.4908 19.919C98.1527 19.7599 97.8842 19.5312 97.6854 19.233C97.4865 18.9318 97.3871 18.5682 97.3871 18.142C97.3871 17.767 97.4609 17.4631 97.6087 17.2301C97.7564 16.9943 97.9538 16.8097 98.201 16.6761C98.4482 16.5426 98.7209 16.4432 99.0192 16.3778C99.3203 16.3097 99.6229 16.2557 99.9268 16.2159C100.325 16.1648 100.647 16.1264 100.894 16.1009C101.144 16.0724 101.326 16.0256 101.44 15.9602C101.556 15.8949 101.614 15.7812 101.614 15.6193V15.5852C101.614 15.1648 101.499 14.8381 101.269 14.6051C101.042 14.3722 100.697 14.2557 100.234 14.2557C99.7536 14.2557 99.3771 14.3608 99.1044 14.571C98.8317 14.7812 98.6399 15.0057 98.5291 15.2443L97.5746 14.9034C97.745 14.5057 97.9723 14.196 98.2564 13.9744C98.5433 13.75 98.8558 13.5937 99.1939 13.5057C99.5348 13.4148 99.87 13.3693 100.2 13.3693C100.41 13.3693 100.651 13.3949 100.924 13.446C101.2 13.4943 101.465 13.5952 101.721 13.7486C101.979 13.902 102.194 14.1335 102.364 14.4432C102.535 14.7528 102.62 15.1676 102.62 15.6875V20H101.614V19.1136H101.563C101.495 19.2557 101.381 19.4077 101.222 19.5696C101.063 19.7315 100.852 19.8693 100.587 19.983C100.323 20.0966 100.001 20.1534 99.62 20.1534ZM99.7734 19.25C100.171 19.25 100.506 19.1719 100.779 19.0156C101.055 18.8594 101.262 18.6577 101.401 18.4105C101.543 18.1634 101.614 17.9034 101.614 17.6307V16.7102C101.572 16.7614 101.478 16.8082 101.333 16.8509C101.191 16.8906 101.026 16.9261 100.839 16.9574C100.654 16.9858 100.474 17.0114 100.298 17.0341C100.124 17.054 99.9837 17.071 99.8757 17.0852C99.6143 17.1193 99.37 17.1747 99.1428 17.2514C98.9183 17.3253 98.7365 17.4375 98.5973 17.5881C98.4609 17.7358 98.3928 17.9375 98.3928 18.1932C98.3928 18.5426 98.522 18.8068 98.7805 18.9858C99.0419 19.1619 99.3729 19.25 99.7734 19.25ZM107.115 20.1364C106.501 20.1364 105.973 19.9915 105.529 19.7017C105.086 19.4119 104.745 19.0128 104.507 18.5043C104.268 17.9957 104.149 17.4148 104.149 16.7614C104.149 16.0966 104.271 15.5099 104.515 15.0014C104.762 14.4901 105.106 14.0909 105.547 13.804C105.99 13.5142 106.507 13.3693 107.098 13.3693C107.558 13.3693 107.973 13.4545 108.342 13.625C108.711 13.7955 109.014 14.0341 109.25 14.3409C109.485 14.6477 109.632 15.0057 109.689 15.4148H108.683C108.606 15.1165 108.436 14.8523 108.172 14.6222C107.91 14.3892 107.558 14.2727 107.115 14.2727C106.723 14.2727 106.379 14.375 106.083 14.5795C105.791 14.7812 105.562 15.0668 105.397 15.4361C105.235 15.8026 105.154 16.233 105.154 16.7273C105.154 17.233 105.234 17.6733 105.393 18.0483C105.555 18.4233 105.782 18.7145 106.075 18.9219C106.37 19.1293 106.717 19.233 107.115 19.233C107.376 19.233 107.613 19.1875 107.826 19.0966C108.039 19.0057 108.22 18.875 108.368 18.7045C108.515 18.5341 108.62 18.3295 108.683 18.0909H109.689C109.632 18.4773 109.491 18.8253 109.267 19.1349C109.045 19.4418 108.751 19.6861 108.385 19.8679C108.021 20.0469 107.598 20.1364 107.115 20.1364ZM112.096 17.6136L112.079 16.3693H112.284L115.147 13.4545H116.392L113.341 16.5398H113.255L112.096 17.6136ZM111.159 20V11.2727H112.164V20H111.159ZM115.318 20L112.761 16.7614L113.477 16.0625L116.596 20H115.318ZM117.822 20V11.2727H120.874C121.482 11.2727 121.983 11.3778 122.378 11.5881C122.773 11.7955 123.067 12.0753 123.26 12.4276C123.453 12.777 123.55 13.1648 123.55 13.5909C123.55 13.9659 123.483 14.2756 123.349 14.5199C123.219 14.7642 123.045 14.9574 122.83 15.0994C122.616 15.2415 122.385 15.3466 122.135 15.4148V15.5C122.402 15.517 122.67 15.6108 122.94 15.7812C123.21 15.9517 123.436 16.196 123.618 16.5142C123.8 16.8324 123.891 17.2216 123.891 17.6818C123.891 18.1193 123.791 18.5128 123.592 18.8622C123.393 19.2116 123.08 19.4886 122.651 19.6932C122.222 19.8977 121.663 20 120.976 20H117.822ZM118.879 19.0625H120.976C121.666 19.0625 122.156 18.929 122.446 18.6619C122.739 18.392 122.885 18.0653 122.885 17.6818C122.885 17.3864 122.81 17.1136 122.659 16.8636C122.509 16.6108 122.294 16.4091 122.016 16.2585C121.737 16.1051 121.408 16.0284 121.027 16.0284H118.879V19.0625ZM118.879 15.108H120.839C121.158 15.108 121.445 15.0455 121.7 14.9205C121.959 14.7955 122.163 14.6193 122.314 14.392C122.467 14.1648 122.544 13.8977 122.544 13.5909C122.544 13.2074 122.411 12.8821 122.143 12.6151C121.876 12.3452 121.453 12.2102 120.874 12.2102H118.879V15.108ZM126.496 11.2727V20H125.491V11.2727H126.496ZM128.338 20V13.4545H129.344V20H128.338ZM128.85 12.3636C128.654 12.3636 128.485 12.2969 128.343 12.1634C128.203 12.0298 128.134 11.8693 128.134 11.6818C128.134 11.4943 128.203 11.3338 128.343 11.2003C128.485 11.0668 128.654 11 128.85 11C129.046 11 129.213 11.0668 129.353 11.2003C129.495 11.3338 129.566 11.4943 129.566 11.6818C129.566 11.8693 129.495 12.0298 129.353 12.1634C129.213 12.2969 129.046 12.3636 128.85 12.3636ZM134.033 13.4545V14.3068H130.641V13.4545H134.033ZM131.629 11.8864H132.635V18.125C132.635 18.4091 132.676 18.6222 132.759 18.7642C132.844 18.9034 132.952 18.9972 133.082 19.0455C133.216 19.0909 133.357 19.1136 133.504 19.1136C133.615 19.1136 133.706 19.108 133.777 19.0966C133.848 19.0824 133.905 19.071 133.947 19.0625L134.152 19.9659C134.084 19.9915 133.989 20.017 133.866 20.0426C133.744 20.071 133.589 20.0852 133.402 20.0852C133.118 20.0852 132.839 20.0241 132.567 19.902C132.297 19.7798 132.072 19.5938 131.893 19.3438C131.717 19.0938 131.629 18.7784 131.629 18.3977V11.8864ZM135.358 20V19.233L139.074 14.4602V14.392H135.477V13.4545H140.369V14.2557L136.756 18.9943V19.0625H140.489V20H135.358Z" fill="white"/>
<line x1="29.5" y1="32" x2="29.5" y2="2.18557e-08" stroke="white" stroke-opacity="0.1"/>
<path d="M11 17.5L15.9583 9V14.6667H19.5L14.5417 23.1667V17.5H11Z" stroke="#FFA500" stroke-linejoin="round"/>
<defs>
<linearGradient id="paint0_linear_1_8" x1="2.96859e-07" y1="30" x2="179" y2="-18" gradientUnits="userSpaceOnUse">
<stop/>
<stop offset="1" stop-color="white" stop-opacity="0"/>
</linearGradient>
</defs>
</svg>
